<svg width="380" height="70" viewBox="0 0 380 70" fill="none" xmlns="http://www.w3.org/2000/svg">
<path d="M0.168 35.208C0.168 28.552 1.608 22.632 4.488 17.448C7.368 12.2 11.368 8.136 16.488 5.256C21.672 2.312 27.528 0.839996 34.056 0.839996C42.056 0.839996 48.904 2.952 54.6 7.17599C60.296 11.4 64.104 17.16 66.024 24.456H47.976C46.632 21.64 44.712 19.496 42.216 18.024C39.784 16.552 37 15.816 33.864 15.816C28.808 15.816 24.712 17.576 21.576 21.096C18.44 24.616 16.872 29.32 16.872 35.208C16.872 41.096 18.44 45.8 21.576 49.32C24.712 52.84 28.808 54.6 33.864 54.6C37 54.6 39.784 53.864 42.216 52.392C44.712 50.92 46.632 48.776 47.976 45.96H66.024C64.104 53.256 60.296 59.016 54.6 63.24C48.904 67.4 42.056 69.48 34.056 69.48C27.528 69.48 21.672 68.04 16.488 65.16C11.368 62.216 7.368 58.152 4.488 52.968C1.608 47.784 0.168 41.864 0.168 35.208ZM100.461 69.768C95.213 69.768 90.477 68.648 86.253 66.408C82.093 64.168 78.797 60.968 76.365 56.808C73.997 52.648 72.813 47.784 72.813 42.216C72.813 36.712 74.029 31.88 76.461 27.72C78.893 23.496 82.221 20.264 86.445 18.024C90.669 15.784 95.405 14.664 100.653 14.664C105.901 14.664 110.637 15.784 114.861 18.024C119.085 20.264 122.413 23.496 124.845 27.72C127.277 31.88 128.493 36.712 128.493 42.216C128.493 47.72 127.245 52.584 124.749 56.808C122.317 60.968 118.957 64.168 114.669 66.408C110.445 68.648 105.709 69.768 100.461 69.768ZM100.461 55.56C103.597 55.56 106.253 54.408 108.429 52.104C110.669 49.8 111.789 46.504 111.789 42.216C111.789 37.928 110.701 34.632 108.525 32.328C106.413 30.024 103.789 28.872 100.653 28.872C97.453 28.872 94.797 30.024 92.685 32.328C90.573 34.568 89.517 37.864 89.517 42.216C89.517 46.504 90.541 49.8 92.589 52.104C94.701 54.408 97.325 55.56 100.461 55.56ZM181.938 22.92C180.722 20.68 178.962 18.984 176.658 17.832C174.418 16.616 171.762 16.008 168.69 16.008C163.378 16.008 159.122 17.768 155.922 21.288C152.722 24.744 151.122 29.384 151.122 35.208C151.122 41.416 152.786 46.28 156.114 49.8C159.506 53.256 164.146 54.984 170.034 54.984C174.066 54.984 177.458 53.96 180.21 51.912C183.026 49.864 185.074 46.92 186.354 43.08H165.522V30.984H201.234V46.248C200.018 50.344 197.938 54.152 194.994 57.672C192.114 61.192 188.434 64.04 183.954 66.216C179.474 68.392 174.418 69.48 168.786 69.48C162.13 69.48 156.178 68.04 150.93 65.16C145.746 62.216 141.682 58.152 138.738 52.968C135.858 47.784 134.418 41.864 134.418 35.208C134.418 28.552 135.858 22.632 138.738 17.448C141.682 12.2 145.746 8.136 150.93 5.256C156.114 2.312 162.034 0.839996 168.69 0.839996C176.754 0.839996 183.538 2.792 189.042 6.696C194.61 10.6 198.29 16.008 200.082 22.92H181.938ZM260.823 41.352C260.823 42.888 260.727 44.488 260.535 46.152H223.383C223.639 49.48 224.695 52.04 226.551 53.832C228.471 55.56 230.807 56.424 233.559 56.424C237.655 56.424 240.503 54.696 242.103 51.24H259.575C258.679 54.76 257.047 57.928 254.679 60.744C252.375 63.56 249.463 65.768 245.943 67.368C242.423 68.968 238.487 69.768 234.135 69.768C228.887 69.768 224.215 68.648 220.119 66.408C216.023 64.168 212.823 60.968 210.519 56.808C208.215 52.648 207.063 47.784 207.063 42.216C207.063 36.648 208.183 31.784 210.423 27.624C212.727 23.464 215.927 20.264 220.023 18.024C224.119 15.784 228.823 14.664 234.135 14.664C239.319 14.664 243.927 15.752 247.959 17.928C251.991 20.104 255.127 23.208 257.367 27.24C259.671 31.272 260.823 35.976 260.823 41.352ZM244.023 37.032C244.023 34.216 243.063 31.976 241.143 30.312C239.223 28.648 236.823 27.816 233.943 27.816C231.191 27.816 228.855 28.616 226.935 30.216C225.079 31.816 223.927 34.088 223.479 37.032H244.023ZM293.867 69.768C288.619 69.768 283.883 68.648 279.659 66.408C275.499 64.168 272.203 60.968 269.771 56.808C267.403 52.648 266.219 47.784 266.219 42.216C266.219 36.712 267.435 31.88 269.867 27.72C272.299 23.496 275.627 20.264 279.851 18.024C284.075 15.784 288.811 14.664 294.059 14.664C299.307 14.664 304.043 15.784 308.267 18.024C312.491 20.264 315.819 23.496 318.251 27.72C320.683 31.88 321.899 36.712 321.899 42.216C321.899 47.72 320.651 52.584 318.155 56.808C315.723 60.968 312.363 64.168 308.075 66.408C303.851 68.648 299.115 69.768 293.867 69.768ZM293.867 55.56C297.003 55.56 299.659 54.408 301.835 52.104C304.075 49.8 305.195 46.504 305.195 42.216C305.195 37.928 304.107 34.632 301.931 32.328C299.819 30.024 297.195 28.872 294.059 28.872C290.859 28.872 288.203 30.024 286.091 32.328C283.979 34.568 282.923 37.864 282.923 42.216C282.923 46.504 283.947 49.8 285.995 52.104C288.107 54.408 290.731 55.56 293.867 55.56ZM354.992 69.672C350.064 69.672 345.648 68.872 341.744 67.272C337.84 65.672 334.704 63.304 332.336 60.168C330.032 57.032 328.816 53.256 328.688 48.84H346.16C346.416 51.336 347.28 53.256 348.752 54.6C350.224 55.88 352.144 56.52 354.512 56.52C356.944 56.52 358.864 55.976 360.272 54.888C361.68 53.736 362.384 52.168 362.384 50.184C362.384 48.52 361.808 47.144 360.656 46.056C359.568 44.968 358.192 44.072 356.528 43.368C354.928 42.664 352.624 41.864 349.616 40.968C345.264 39.624 341.712 38.28 338.96 36.936C336.208 35.592 333.84 33.608 331.856 30.984C329.872 28.36 328.88 24.936 328.88 20.712C328.88 14.44 331.152 9.544 335.696 6.024C340.24 2.44 346.16 0.647999 353.456 0.647999C360.88 0.647999 366.864 2.44 371.408 6.024C375.952 9.544 378.384 14.472 378.704 20.808H360.944C360.816 18.632 360.016 16.936 358.544 15.72C357.072 14.44 355.184 13.8 352.88 13.8C350.896 13.8 349.296 14.344 348.08 15.432C346.864 16.456 346.256 17.96 346.256 19.944C346.256 22.12 347.28 23.816 349.328 25.032C351.376 26.248 354.576 27.56 358.928 28.968C363.28 30.44 366.8 31.848 369.488 33.192C372.24 34.536 374.608 36.488 376.592 39.048C378.576 41.608 379.568 44.904 379.568 48.936C379.568 52.776 378.576 56.264 376.592 59.4C374.672 62.536 371.856 65.032 368.144 66.888C364.432 68.744 360.048 69.672 354.992 69.672Z" fill="#2E368F"/>
</svg>
