<?xml version="1.0" encoding="utf-8"?>
<!-- Generator: Adobe Illustrator 24.1.1, SVG Export Plug-In . SVG Version: 6.00 Build 0)  -->
<svg version="1.1" id="Layer_1" xmlns="http://www.w3.org/2000/svg" xmlns:xlink="http://www.w3.org/1999/xlink" x="0px" y="0px"
	 viewBox="0 0 1366 558" style="enable-background:new 0 0 1366 558;" xml:space="preserve">
<style type="text/css">
	.st0{fill:#FFFFFF;}
</style>
<g>
	<path class="st0" d="M286.75,116.3L286.75,116.3c44.3,0,84.48,17.66,113.48,46.26c29.06,28.55,47,68.09,47,111.65v0.04
		c0,43.61-17.95,83.09-47,111.7c-29.01,28.6-69.18,46.22-113.44,46.22v0.04h-0.05v-0.04c-44.31,0-84.44-17.62-113.49-46.26
		c-29.06-28.56-46.97-68.04-47.01-111.65c0-43.61,17.95-83.14,47.05-111.7C202.31,133.97,242.44,116.3,286.75,116.3 M286.75,119.31
		L286.75,119.31c-43.5,0-82.81,17.35-111.33,45.38c-28.47,28.03-46.11,66.76-46.11,109.57c0,42.81,17.63,81.55,46.11,109.57
		c28.52,28.03,67.83,45.38,111.33,45.38h0.05c43.45,0,82.81-17.35,111.32-45.38c28.43-28.03,46.1-66.81,46.1-109.57h-0.04v-0.04
		h0.04c-0.04-42.77-17.67-81.5-46.1-109.53C369.6,136.66,330.24,119.31,286.75,119.31"/>
	<path class="st0" d="M319.48,488c2.74,4.29,8.91,1.33,4.77-5.75c-8.86-12.22-17.86-21.43-27.35-27.98
		c13-2.52,26.18,1.24,39.5,10.23c38.27,24.66,85.33,29.08,139.13-24.08c3.81-2.84,1.07-8.41-4.28-4.16
		c-30.85,22.22-69.9,30.5-116.32,13.68c-26.36-9.56-48.31-10.85-68.19-1.51c-19.79-9.34-41.79-8.05-68.1,1.51
		c-46.42,16.82-85.51,8.54-116.37-13.68c-5.3-4.25-8.09,1.33-4.23,4.16c53.71,53.17,100.76,48.75,139.13,24.08
		c13.32-8.99,26.45-12.75,39.45-10.23c-9.44,6.55-18.49,15.76-27.35,27.98c-4.09,7.08,1.98,10.05,4.82,5.75
		c10.75-15.45,21.63-25.33,32.65-30.37C297.8,462.68,308.72,472.55,319.48,488 M402.87,427.17c21.32-15.63,15.84-38.21,23.35-49.76
		c6.34-10.05,24.47-18.55,32.79-36.52c9.35,34.84-7.19,36.52-10.8,54.8c14.3-6.15,20.69,0.84,44.49-17
		C456.9,435.19,432.7,418.58,402.87,427.17 M479.75,347.66c28.29-15.71,35.22-43.91,32.39-77.78c-6.21,10.5-21.01,16.29-18.58,31.43
		c-18.98,3.41,1.76-17.4-25.86-34.4c5.31,18.1-10.93,31.16,0,40.37C475.02,318.18,480.2,312.07,479.75,347.66 M495.76,265.63
		c16.55-34.71,17.54-63.75,2.97-74.38c-2.97,12.31-6.03,24.66-9.04,36.97c-12.23-6.78-23.88-16.43-34.95-28.86
		c7.78,14.12-3.06,29.57,16.82,41.17C486.67,248.05,491.71,253.9,495.76,265.63 M479.34,197.18c-0.71-15.14,7.65-23.91,5.63-35.28
		c-4.01-10.09-9.85-18.95-17.28-26.78c-2.47,9.91,0.27,18.99-4.77,27.22c-13.14-4.38-23.62-1.99-36.71-10.67
		c8.73,10.49,6.61,21.96,28.07,28.51C465.8,184.79,470.84,189.93,479.34,197.18 M448.66,144.06c3.51-35.46-10.07-38.48-28.07-53.17
		c3.69,13.07,11.47,25.42,7.78,33.6c-16.42-3.8-20.74,5.09-44.93-2.13c9.94,5.23,12.5,21.56,30.63,16.6
		C423.34,138.97,435.57,131.26,448.66,144.06 M405.93,108.33c-5.85-12.66-28.61-36.35-49.25-30.99c7.78,5.67,16.01,11.2,16.82,15.67
		c-6.34,3.06-15.69,2.04-25.46,0.44C352.54,109.57,377.14,110.46,405.93,108.33 M355.37,84.12c-20.87,5.67-36.12,1.99-43.18-16.12
		C337.42,82.7,346.78,68.53,355.37,84.12 M170.63,427.17c-21.33-15.63-15.83-38.21-23.3-49.76c-6.34-10.05-24.47-18.55-32.83-36.52
		c-9.36,34.84,7.15,36.52,10.79,54.8c-14.26-6.15-20.64,0.84-44.49-17C116.61,435.19,140.85,418.58,170.63,427.17 M93.72,347.66
		c-28.3-15.71-35.18-43.91-32.35-77.78c6.17,10.5,21.01,16.29,18.58,31.43c19.03,3.41-1.71-17.4,25.91-34.4
		c-5.31,18.1,10.93,31.16,0,40.37C98.53,318.18,93.35,312.07,93.72,347.66 M77.79,265.63c-16.55-34.71-17.58-63.75-3.06-74.38
		c3.06,12.31,6.08,24.66,9.09,36.97c12.24-6.78,23.88-16.43,34.99-28.86c-7.78,14.12,3.02,29.57-16.87,41.17
		C86.83,248.05,81.79,253.9,77.79,265.63 M94.16,197.18c0.76-15.14-7.6-23.91-5.58-35.28c3.96-10.09,9.84-18.95,17.28-26.78
		c2.47,9.91-0.32,18.99,4.72,27.22c13.09-4.38,23.66-1.99,36.76-10.67c-8.82,10.49-6.66,21.96-28.07,28.51
		C107.7,184.79,102.71,189.93,94.16,197.18 M124.84,144.06c-3.46-35.46,10.03-38.48,28.12-53.17c-3.73,13.07-11.52,25.42-7.78,33.6
		c16.38-3.8,20.73,5.09,44.89-2.13c-9.94,5.23-12.5,21.56-30.68,16.6C150.17,138.97,137.98,131.26,124.84,144.06 M167.62,108.33
		c5.8-12.66,28.61-36.35,49.25-30.99c-7.78,5.67-16.06,11.2-16.87,15.67c6.3,3.06,15.65,2.04,25.46,0.44
		C220.92,109.57,196.41,110.46,167.62,108.33 M218.13,84.12C239,89.78,254.3,86.11,261.32,68C236.03,82.7,226.68,68.53,218.13,84.12
		"/>
	<path class="st0" d="M401.31,309.37L401.31,309.37c-2.16,6.73-4.86,13.19-8.14,19.35c-3.24,6.11-7.02,11.99-11.34,17.44
		c-21.91,28.06-56.36,46.14-95.09,46.14c-11.74,0-23.08-1.69-33.78-4.74c-6.11-1.77-11.97-3.98-17.63-6.64
		c-29.1-13.63-51.78-38.47-62.16-68.8l2.87-0.97c10.17,29.57,32.21,53.79,60.59,67.07c5.49,2.53,11.24,4.74,17.23,6.42
		c10.39,3.06,21.45,4.65,32.88,4.65c37.78,0,71.34-17.62,92.71-44.98c4.13-5.27,7.82-10.98,11.02-17
		c3.14-5.93,5.84-12.27,7.92-18.86L401.31,309.37z"/>
	<path class="st0" d="M306.17,158.57c56.05,9.26,100.17,57.78,100.17,116.08c0,11.2-1.93,22.71-4.9,32.89L306.17,158.57z"/>
	<path class="st0" d="M171.35,305.47c-2.75-9.83-4.18-20.14-4.18-30.82c0-48.21,29.5-89.69,71.7-107.88L171.35,305.47z"/>
	<path class="st0" d="M163.63,313.9l-20.06,4.21l-1.26-5.97l12.87-6.46l-14.4-0.62l-1.3-6.02l20.01-4.16l0.82,3.67l-15.79,3.28
		l16.64,0.62l0.81,3.85l-14.89,7.22l15.75-3.32L163.63,313.9z M157.52,272.87l0.36,4.48l-4.54,2.03l0.58,8.02l4.73,1.37l0.31,4.29
		l-20.96-6.41l-0.27-4.29L157.52,272.87z M150,280.92l-7.37,3.28l7.78,2.21L150,280.92z M157.79,270.47l-20.38-1.77l0.54-6.5
		c0.22-2.48,0.49-4.08,0.76-4.78c0.41-1.16,1.12-2.04,2.25-2.75c1.08-0.66,2.47-0.93,4.09-0.79c1.22,0.08,2.25,0.4,3.06,0.93
		c0.86,0.53,1.44,1.15,1.89,1.9c0.4,0.75,0.68,1.46,0.77,2.17c0.13,0.97,0.09,2.39-0.04,4.21l-0.27,2.65l7.69,0.71L157.79,270.47z
		 M141.23,264.94l5.76,0.48l0.23-2.21c0.08-1.59,0.08-2.65-0.05-3.23c-0.18-0.57-0.49-0.97-0.89-1.33
		c-0.45-0.35-0.95-0.58-1.57-0.62c-0.72-0.04-1.35,0.13-1.89,0.53c-0.5,0.35-0.86,0.84-1.04,1.51c-0.13,0.48-0.22,1.45-0.35,2.92
		L141.23,264.94z M159.72,251.97l-19.89-4.91l1.67-6.29c0.59-2.43,1.08-3.99,1.49-4.65c0.54-1.01,1.44-1.86,2.61-2.35
		c1.22-0.48,2.61-0.57,4.18-0.18c1.21,0.26,2.2,0.75,2.92,1.41c0.68,0.62,1.21,1.33,1.53,2.18c0.31,0.75,0.45,1.5,0.45,2.21
		c-0.09,1.01-0.31,2.38-0.77,4.16l-0.67,2.61l7.47,1.86L159.72,251.97z M144.25,243.96l5.62,1.37l0.54-2.18
		c0.4-1.55,0.59-2.6,0.5-3.18c-0.04-0.57-0.32-1.06-0.68-1.46c-0.36-0.44-0.85-0.71-1.39-0.85c-0.77-0.17-1.44-0.13-1.98,0.18
		c-0.58,0.31-0.98,0.8-1.3,1.38c-0.18,0.44-0.45,1.41-0.81,2.83L144.25,243.96z M164.67,233.82l-19.25-6.9l1.44-3.8l19.21,6.86
		L164.67,233.82z M167.18,226.2L148.97,217l1.84-3.5l15.97-1.24l-12.19-6.11l1.76-3.36l18.22,9.12l-1.89,3.63l-15.65,1.33
		l11.92,5.93L167.18,226.2z M175.87,196.14l-2.74-1.99l5.21-7.08l6.57,4.69c0.18,1.2,0.05,2.61-0.36,4.29
		c-0.49,1.68-1.21,3.19-2.2,4.52c-1.26,1.68-2.74,2.97-4.36,3.67c-1.66,0.75-3.41,0.97-5.22,0.62c-1.84-0.31-3.55-1.02-5.12-2.17
		c-1.71-1.24-3.02-2.7-3.82-4.34c-0.81-1.68-1.08-3.5-0.77-5.36c0.22-1.46,0.89-2.92,2.07-4.47c1.44-2.04,3.06-3.32,4.77-3.81
		c1.71-0.57,3.46-0.44,5.21,0.36l-1.8,3.72c-0.99-0.35-1.94-0.4-2.88-0.09c-0.95,0.31-1.8,0.89-2.47,1.86
		c-1.07,1.42-1.44,2.87-1.12,4.38c0.27,1.55,1.35,2.97,3.15,4.25c1.98,1.37,3.78,2.03,5.4,1.86c1.62-0.13,2.92-0.88,3.96-2.35
		c0.5-0.62,0.9-1.46,1.13-2.3c0.27-0.93,0.36-1.72,0.36-2.52l-2.11-1.5L175.87,196.14z M195.16,184.99l-13.99-14.75l10.3-9.43
		l2.39,2.53l-7.24,6.6l3.28,3.5l6.2-5.75l2.39,2.53l-6.26,5.71l5.94,6.24L195.16,184.99z M201.91,165.19
		c-1.07-1.72-1.75-3.36-1.98-4.86c-0.18-1.11-0.14-2.26,0.13-3.37c0.22-1.06,0.67-2.08,1.3-2.87c0.77-1.15,1.89-2.13,3.28-3.01
		c2.56-1.55,5.09-2.04,7.65-1.42c2.47,0.62,4.63,2.3,6.38,5.09c1.76,2.79,2.39,5.4,1.85,7.88c-0.54,2.52-2.07,4.51-4.63,6.11
		c-2.61,1.6-5.08,2.08-7.6,1.46C205.74,169.58,203.62,167.9,201.91,165.19 M205.42,162.85c1.26,1.94,2.65,3.09,4.18,3.58
		c1.53,0.44,3.06,0.22,4.41-0.67c1.39-0.84,2.25-2.03,2.52-3.58c0.23-1.55-0.22-3.32-1.53-5.27c-1.21-1.99-2.56-3.14-4.05-3.58
		c-1.48-0.44-2.97-0.22-4.41,0.71c-1.44,0.84-2.29,2.03-2.56,3.58C203.71,159.18,204.2,160.91,205.42,162.85 M226.97,161.62
		l-8.36-18.42l7.96-3.5c2.03-0.84,3.51-1.33,4.59-1.37c1.03-0.09,2.07,0.22,2.96,0.84c0.95,0.57,1.62,1.42,2.12,2.48
		c0.68,1.42,0.77,2.75,0.32,3.99c-0.41,1.24-1.35,2.39-2.93,3.32c1.04,0.09,1.94,0.36,2.74,0.66c0.81,0.36,1.94,0.97,3.51,2.04
		l3.87,2.62l-4.5,1.94l-4.54-2.79c-1.62-1.02-2.7-1.59-3.19-1.86c-0.54-0.18-1.03-0.27-1.53-0.23c-0.4,0-1.09,0.23-1.98,0.62
		l-0.76,0.35l3.5,7.61L226.97,161.62z M225.93,149.35l2.79-1.24c1.8-0.8,2.88-1.33,3.28-1.68l0.72-1.28c0.1-0.45,0-0.97-0.27-1.55
		c-0.27-0.57-0.68-1.02-1.17-1.24c-0.5-0.26-1.08-0.26-1.71-0.14c-0.36,0.14-1.31,0.49-2.84,1.15l-2.93,1.33L225.93,149.35z
		 M325.93,146.03l3.87,1.02c-0.27,1.37-0.14,2.44,0.31,3.28c0.5,0.84,1.31,1.51,2.48,1.95c1.26,0.45,2.25,0.53,3.1,0.22
		c0.86-0.22,1.4-0.71,1.67-1.41l0.05-1.29c-0.14-0.44-0.54-0.88-1.07-1.33c-0.41-0.35-1.31-1.01-2.79-1.99
		c-1.85-1.33-3.06-2.48-3.6-3.5c-0.82-1.5-0.9-3.01-0.32-4.47c0.41-0.93,1.03-1.73,1.89-2.39c0.89-0.57,1.94-0.93,3.15-0.97
		c1.21-0.04,2.52,0.22,4,0.75c2.42,0.93,4,2.08,4.81,3.58c0.81,1.51,0.89,3.14,0.31,4.87l-3.91-1.24c0.18-1.07,0.14-1.86-0.26-2.52
		c-0.41-0.63-1.13-1.11-2.21-1.55c-1.12-0.45-2.12-0.53-2.88-0.31c-0.54,0.13-0.9,0.44-1.07,0.89l0.13,1.41
		c0.32,0.53,1.31,1.42,3.02,2.57c1.76,1.15,2.97,2.13,3.69,2.97c0.68,0.75,1.17,1.68,1.35,2.65c0.18,1.02,0.04,2.13-0.4,3.28
		c-0.45,1.11-1.13,1.99-2.11,2.7c-0.95,0.75-2.11,1.06-3.37,1.11c-1.3,0.04-2.79-0.23-4.46-0.84c-2.38-0.93-4.04-2.17-4.9-3.77
		C325.47,150.1,325.35,148.24,325.93,146.03 M352.19,141.87l3.65,1.99l-5.4,9.52c-0.81,1.5-1.35,2.57-1.49,3.01
		c-0.26,0.84-0.22,1.59,0.1,2.34c0.36,0.8,1.03,1.42,2.02,2c1.04,0.57,1.93,0.75,2.66,0.66c0.77-0.13,1.39-0.48,1.8-1.06
		c0.45-0.53,1.08-1.51,1.85-2.88l5.49-9.78l3.64,1.99l-5.21,9.25c-1.21,2.13-2.16,3.58-2.79,4.34c-0.72,0.75-1.48,1.28-2.34,1.64
		c-0.86,0.3-1.85,0.4-2.93,0.26c-1.07-0.09-2.34-0.58-3.73-1.38c-1.71-0.89-2.92-1.82-3.6-2.65c-0.63-0.93-1.08-1.77-1.21-2.7
		c-0.18-0.84-0.14-1.73,0.09-2.48c0.31-1.15,1.08-2.71,2.16-4.7L352.19,141.87z M363.13,164.01l3.41,2.08
		c-0.59,1.19-0.81,2.3-0.59,3.23c0.23,0.93,0.82,1.78,1.85,2.52c1.03,0.8,2.02,1.16,2.88,1.11c0.9-0.04,1.53-0.36,1.98-0.93
		l0.4-1.24c0-0.44-0.22-0.97-0.63-1.6c-0.27-0.4-0.99-1.28-2.11-2.65c-1.44-1.73-2.26-3.19-2.48-4.34c-0.36-1.64,0-3.1,0.95-4.34
		c0.63-0.84,1.49-1.46,2.48-1.77c0.98-0.35,2.11-0.4,3.28-0.13c1.21,0.26,2.38,0.88,3.64,1.81c2.07,1.55,3.28,3.1,3.6,4.78
		c0.35,1.64,0,3.23-1.04,4.74l-3.42-2.3c0.45-0.93,0.63-1.72,0.45-2.48c-0.18-0.71-0.77-1.37-1.71-2.08
		c-0.95-0.66-1.85-1.06-2.66-1.06c-0.58,0-0.98,0.18-1.3,0.57c-0.27,0.4-0.36,0.84-0.22,1.37c0.13,0.62,0.86,1.77,2.16,3.32
		c1.35,1.55,2.2,2.79,2.7,3.81c0.45,0.92,0.68,1.95,0.54,2.96c-0.09,1.02-0.54,2.04-1.31,3.06c-0.67,0.89-1.62,1.6-2.74,1.99
		c-1.13,0.4-2.34,0.48-3.59,0.13c-1.26-0.26-2.61-0.97-4-2.03c-2.07-1.55-3.28-3.19-3.69-4.96
		C361.55,167.85,361.96,166,363.13,164.01 M377.97,184.95l12.27-11.65l-4.23-4.29l2.53-2.39l11.28,11.56l-2.52,2.35l-4.23-4.25
		l-12.19,11.56L377.97,184.95z M396.5,207.26l-2.65-3.58l2.7-4.11l-4.81-6.56l-4.72,1.37l-2.61-3.45l21.28-5.53l2.56,3.5
		L396.5,207.26z M398.58,196.5l4.49-6.64l-7.78,2.17L398.58,196.5z M397.22,209.16l17.54-10.41l2.16,3.46l-17.59,10.4L397.22,209.16
		z M401.32,215.85l18.57-8.5l1.67,3.58l-8.82,13.19l12.37-5.71l1.62,3.41l-18.53,8.5l-1.76-3.68l8.64-12.92l-12.15,5.53
		L401.32,215.85z M414.45,252.23l-1.21-4.21l3.91-3.01l-2.2-7.75l-4.95-0.31l-1.21-4.12l21.86,2l1.26,4.11L414.45,252.23z
		 M420.17,242.85l6.47-4.74l-8.05-0.53L420.17,242.85z M434.56,252.55l0.72,8.01c0.14,1.59,0.22,2.75,0.14,3.58
		c-0.09,0.8-0.31,1.5-0.68,2.17c-0.36,0.62-0.85,1.2-1.57,1.68c-0.67,0.49-1.44,0.71-2.34,0.8c-0.9,0.08-1.85-0.09-2.65-0.53
		c-0.86-0.45-1.53-1.06-1.98-1.9c-0.27,1.24-0.81,2.26-1.57,2.96c-0.86,0.75-1.89,1.15-3.06,1.24c-0.9,0.09-1.85-0.04-2.7-0.35
		c-0.94-0.36-1.7-0.89-2.29-1.59c-0.58-0.67-0.99-1.56-1.21-2.62c-0.09-0.67-0.32-2.3-0.54-4.87l-0.63-6.86L434.56,252.55z
		 M431.55,256.89l-4.73,0.4l0.22,2.65c0.14,1.55,0.27,2.57,0.36,2.96c0.13,0.67,0.4,1.2,0.9,1.56c0.4,0.4,0.95,0.48,1.62,0.48
		c0.59-0.04,1.13-0.26,1.49-0.67c0.36-0.4,0.58-0.93,0.58-1.6c0.05-0.4-0.04-1.55-0.22-3.45L431.55,256.89z M423.45,257.55
		l-5.49,0.49l0.36,3.76c0.13,1.46,0.27,2.39,0.36,2.79c0.18,0.58,0.45,1.02,0.95,1.38c0.45,0.35,1.08,0.48,1.8,0.44
		c0.58-0.04,1.12-0.27,1.48-0.57c0.4-0.36,0.72-0.8,0.85-1.33c0.14-0.62,0.14-1.82-0.04-3.63L423.45,257.55z M415.89,274.95
		l20.24,1.37l-0.26,4.07l-16.82-1.15l-0.68,10.05l-3.47-0.23L415.89,274.95z M414.32,291.68l20.11,3.5l-2.61,14.7l-3.42-0.58
		l1.88-10.71l-4.41-0.75l-1.8,9.92l-3.37-0.53l1.76-9.95l-5.45-0.98l-2.02,11.07l-3.42-0.58L414.32,291.68z"/>
	<path class="st0" d="M187.03,355.63l5.26,5.31c1.21,1.2,1.98,2.22,2.43,3.01c0.59,1.11,0.86,2.26,0.81,3.5
		c-0.05,1.24-0.4,2.43-1.04,3.67c-0.68,1.2-1.62,2.43-3.02,3.77c-1.26,1.15-2.43,1.99-3.55,2.52c-1.48,0.67-2.83,0.97-4.14,0.93
		c-1.03,0-2.07-0.36-3.19-0.93c-0.86-0.48-1.8-1.2-2.88-2.3l-5.4-5.53L187.03,355.63z M187.43,360.9l-9.77,9.25l2.16,2.22
		c0.81,0.79,1.39,1.33,1.88,1.64c0.59,0.35,1.13,0.57,1.76,0.62c0.59,0.04,1.3-0.18,2.16-0.62c0.86-0.45,1.88-1.15,3.01-2.26
		c1.12-1.06,1.89-2.03,2.29-2.78c0.46-0.8,0.64-1.51,0.64-2.18c0-0.71-0.23-1.33-0.64-2.04c-0.31-0.48-1.03-1.33-2.24-2.52
		L187.43,360.9z M190.41,386.84L203,370.99l11.96,9.21l-2.15,2.66l-8.68-6.69l-2.79,3.54l8.1,6.2l-2.16,2.65l-8.05-6.24l-3.46,4.34
		l9.04,6.95l-2.11,2.65L190.41,386.84z M214.15,403.22l2.74-21.2l4.01,1.99l-2.29,15.58l11.33-11.07l3.91,1.99l-15.79,14.66
		L214.15,403.22z M231.02,411.06l7.02-18.95l14.21,5.09l-1.17,3.28l-10.39-3.76l-1.57,4.2l9.72,3.45l-1.17,3.19l-9.67-3.45
		l-1.94,5.18l10.75,3.8l-1.17,3.19L231.02,411.06z M253.78,417.79l3.87-19.57l4.05,0.71l-3.19,16.34l10.12,1.94l-0.72,3.32
		L253.78,417.79z M275.24,410.92c0.09-2.08,0.54-3.81,1.22-5.14c0.49-1.02,1.21-1.86,2.02-2.65c0.86-0.75,1.75-1.33,2.75-1.69
		c1.3-0.49,2.79-0.67,4.45-0.58c3.01,0.14,5.4,1.24,7.11,3.14c1.71,1.95,2.43,4.52,2.25,7.8c-0.13,3.27-1.17,5.75-3.06,7.48
		c-1.88,1.73-4.36,2.57-7.33,2.39c-3.01-0.18-5.4-1.16-7.11-3.11C275.82,416.67,275.06,414.06,275.24,410.92 M279.52,411.01
		c-0.14,2.26,0.31,4.04,1.3,5.23c1.04,1.24,2.35,1.91,4.01,1.99c1.62,0.09,3.02-0.44,4.14-1.55c1.07-1.15,1.71-2.83,1.84-5.13
		c0.13-2.35-0.31-4.07-1.26-5.31c-0.94-1.15-2.29-1.81-4-1.9c-1.71-0.04-3.1,0.44-4.18,1.55
		C280.23,406.94,279.64,408.66,279.52,411.01 M302.4,421.19l-3.87-19.74l6.43-1.24c2.52-0.48,4.14-0.7,4.94-0.62
		c1.17,0.04,2.25,0.53,3.24,1.33c0.99,0.89,1.62,2.08,1.94,3.67c0.27,1.24,0.22,2.26-0.09,3.19c-0.27,0.89-0.72,1.69-1.3,2.26
		c-0.59,0.62-1.26,1.07-1.89,1.37c-0.95,0.36-2.34,0.71-4.18,1.07l-2.66,0.53l1.44,7.43L302.4,421.19z M303.22,404.01l1.12,5.62
		l2.21-0.44c1.57-0.31,2.65-0.62,3.14-0.93l1.08-1.2c0.22-0.53,0.27-1.02,0.14-1.64c-0.14-0.71-0.5-1.24-0.95-1.64
		c-0.54-0.4-1.17-0.58-1.85-0.58c-0.49,0-1.49,0.14-2.97,0.45L303.22,404.01z M325.7,416.77l-6.65-19.08l5.85-1.99l8.05,11.82
		l-1.08-14.21l5.9-1.9l6.65,18.99l-3.64,1.28l-5.22-15l1.35,16.29l-3.73,1.23l-9.09-13.68l5.26,14.97L325.7,416.77z M352.65,407.07
		l-10.57-17.31l13-7.66l1.76,2.92l-9.41,5.58l2.29,3.85l8.82-5.22l1.8,2.88l-8.86,5.22l2.92,4.69l9.81-5.75l1.76,2.88L352.65,407.07
		z M372.76,394.98l-12.86-15.68l3.1-2.52l15.11,5.31l-8.59-10.49l3.01-2.35l12.87,15.63l-3.24,2.61l-14.8-5.14l8.37,10.23
		L372.76,394.98z M395.25,375.72l-12.41-11.42l-4.14,4.38l-2.56-2.35l11.11-11.73l2.52,2.35l-4.1,4.39l12.42,11.37L395.25,375.72z"
		/>
	<path class="st0" d="M148.34,351.27L261.6,119.24c0.36-0.8,1.31-1.11,2.03-0.75l0.59,0.53l15.11,20.95l6.66-10.76v-0.04l0.49-0.44
		c0.72-0.45,1.67-0.23,2.12,0.44L428.08,347.1c0.36,0.7,0.22,1.55-0.45,2.03c-0.72,0.49-1.62,0.35-2.11-0.35L279.51,145.45
		L150.95,352.77c-0.4,0.7-1.35,0.92-2.07,0.48C148.16,352.81,147.93,351.97,148.34,351.27 M263.27,122.82l-99.01,202.72
		l113.31-182.75L263.27,122.82z M281.22,142.66l113.66,158.27l-107.55-168.1L281.22,142.66z"/>
	<path class="st0" d="M291.99,373.53c-0.45-0.62-0.4-1.19-0.4-2.97c0-1.1-1.49-3.67-2.11-4.69c0-1.99-2.07-2.7-2.75-4.03
		c-1.17-2.26-2.47-5.19-2.47-8.02c0-0.93-0.18-1.95-0.18-2.88c0-1.23-1.49-1.72-1.49-2.61c-0.86-1.95-3.74-5.18-3.74-7.22
		c0-2.03-0.08-4.16,0.72-5.89c0.59-1.28,0.18-2.21,1.26-3.28c3.78-3.67,0.49-5.75,0.49-9.83c0.58-1.2-1.58-6.33-2.07-7.79
		c-0.59-1.73-7.65-7.84-6.44-9.03c1.17-1.11,1.76-5.76,1.76-7.8c0.49-5.13-7.56-0.08-8.41-2.43l-0.41-1.11
		c-2.43-6.24-9.4-2.66-14.53-0.71c-1.31,0.49-11.6-1.81-11.6,0.89c-1.98,0-6.52-4.16-8.1-5.71c-0.85-0.8-2.16-1.91-2.65-2.89
		c-0.67-1.33-0.49-3.14-1.66-4.25c-1.58-1.55-3.51-3.55-4.5-5.49c-0.49-1.02-0.77-5.85-0.22-6.33c2.25-2.61,2.38-5.58,2.38-9.07
		c0-0.58,0.5-1.33,0.5-1.99c0-0.8-1.17-0.71-1.17-2.17c0-0.84,1.48-1.59,1.48-2.21c0.27-1.64,8.55-11.82,10.03-12.09
		c1.17-0.18,4.72-1.06,4.72-2.43c0-2.87,0.86-2.62,2.25-4.78c0.54-0.71,0.86-1.55,1.35-2.04l2.38-1.15l1.17-1.02l0.41-0.18
		c0.54-0.26,0.95-0.44,1.21-1.02l0.36-0.71l0.09-0.66c0-1.28,9.35,3.67,11.34-0.35c1.03-1.95,19.61-1.77,18.67,0.09
		c-0.72,1.46,0.22,1.15,0.22,2.21c0,2.39-3.16,1.24-0.72,3.63c1.97,1.95,6.3,1.38,7.65,2.65c0.63,0.67,1.21,1.15,1.8,1.6
		c0.18,0.45,1.8,1.2,3.38,1.69c2.38,0.71,4.9,0.84,2.56-1.46c-0.81-0.8,4.18-3.68,5.13-2.35c1.03,1.64,9.49,2.92,11.6,2.92
		c1.94,0,2.43-1.6,4.68-1.28c1.76,0.22,3.06,0.57,5.08,0.57c0.23,0.89,1.67,3.45,2.34,4.07c0.68,0.66-0.85,2.79-1.48,2.79
		c-0.86,0-1.76-0.84-2.21-1.59c-0.85-1.72,1,2.26,1.94,3.14c0.68,0.71,4.36,6.82,4.36,7.66c0,0.22,2.43,3.23,2.79,3.99
		c0.41,0.93,0.95,3.89,1.04,5c2.2,1.46,4.36,3.54,4.36,6.55c0,1.06,1.94,1.95,1.48,1.15c-1.03-2.21,5.39,3.85,6.03,4.74
		c0.95,1.28,0.76,2.3,1.4,3.36c0.95,2.57,2.15,1.42,3.59,0.75c1.08-0.49,2.66-0.85,3.92-0.85c1.26,0,2.56-0.62,3.33-0.62
		c0.9,0,2.48,0.97,2.48-0.45c0-0.88,0.54-1.37,1.43-1.37l2.34-1.33l0.99,1.82c2.48,5-4.4,5.27-4.4,8.45
		c-0.36,2.92-2.97,8.82-5.76,10.36c-0.99,0.62-4.45,3.54-5.09,4.29c-0.49,0.66-2.25,2.13-2.25,2.7c-2.7,3.85-7.47,8.11-8.1,12.66
		c-0.18,2.08,0.36,4.38,0.36,6.68c0,2.84,1.94,3.28,1.94,5.58c-0.9,1.77,0.22,5.76-0.18,7.79c-0.63,3.63-7.33,6.6-10.21,8.5
		l-1.85,3.67c0.27,0.84,0.81,3.01,0.81,3.72c-0.54,4.96-1.17,3.77-5.17,5.72l-1.3,5c-0.95,5.57-19.66,19.87-24.92,14.65
		C293.25,374.72,292.34,374.14,291.99,373.53 M355.14,329.21c0,2.65,1.22,5.44,1.22,8.37c0,1.01-1.4,0-1.4,0.3l0.45,1.46
		c0.22,0.44-1.09,0.97-1.09,1.77l0.14,1.06c-0.63,0.36,0.13,1.46-0.27,1.86l-0.45,0.22l-0.72,1.46c-0.31,0.75-1.21,1.41-1.44,2.21
		l-0.9,1.51c0.05,0.45-1.62,3.45-1.89,4.29c-0.35,1.2-0.63,3.19-1.66,3.72l-2.38,0.31l-0.99,0.44c-0.9,0.23-2.79-1.86-2.79-2.7
		c0-0.53-0.22-5.57,0.18-5.57l0.18-0.58c0-0.62,2.47-2.61,2.47-3.68c-0.18-1.37-0.41-1.99-0.41-3.5c0-1.42-0.08-1.68,0.72-2.48
		c0.77-0.75,1.31-2.08,2.93-2.08c0.98,0,1.21-0.57,1.75-0.84l0.95-0.26c0.32,0.58,0.68-0.4,0-0.4l0.59-0.71l0.22-0.22l0.31,0.09
		l0.59-0.63l0.4-0.75l0.05-1.2l0.27-0.26l0.27,0.57l0.81-0.57l0.36-0.75l0.05-0.4l0.18-0.18c0.23-0.23-0.41-0.85,0.31-1.15
		l0.41-0.45L355.14,329.21"/>
	<path class="st0" d="M568.46,348.96l0-143.53l65.72,0c6.84,0,13.19,1.42,18.99,4.25c5.85,2.83,10.88,6.51,15.11,11.16
		c4.23,4.51,7.56,9.7,9.94,15.54c2.38,5.76,3.55,11.65,3.55,17.62c0,4.38-0.49,8.68-1.57,12.8c-1.12,4.12-2.7,7.97-4.72,11.6
		c-2.07,3.67-4.59,6.95-7.51,9.82c-2.97,2.92-6.25,5.31-9.94,7.39l32.03,53.35l-38.01,0l-27.93-46.31h-22v46.31L568.46,348.96z
		 M602.11,273.78h30.86c3.91,0,7.42-1.86,10.25-5.58c2.88-3.67,4.32-8.46,4.32-14.21c0-5.97-1.62-10.67-4.95-14.21
		c-3.28-3.5-6.84-5.27-10.71-5.27l-29.77,0V273.78z"/>
	<path class="st0" d="M701.73,275.99c0-8.59,1.67-17.22,4.95-25.76c3.28-8.54,8.04-16.2,14.39-22.98
		c6.26-6.73,13.95-12.17,22.94-16.38c9.09-4.12,19.35-6.19,30.86-6.19c13.72,0,25.55,2.83,35.62,8.67
		c10.08,5.76,17.59,13.32,22.5,22.62l-25.86,17.8c-1.62-3.77-3.74-6.9-6.3-9.43c-2.52-2.48-5.26-4.48-8.28-6.07
		c-3.01-1.55-6.11-2.61-9.26-3.23c-3.14-0.57-6.2-0.89-9.26-0.89c-6.39,0-12.01,1.29-16.82,3.85c-4.77,2.53-8.73,5.84-11.92,9.87
		c-3.14,4.03-5.44,8.68-6.97,13.77c-1.53,5.09-2.25,10.27-2.25,15.54c0,5.67,0.85,11.11,2.65,16.34c1.76,5.31,4.37,9.95,7.69,14.03
		c3.37,4.03,7.42,7.22,12.15,9.61c4.72,2.3,10.03,3.54,15.92,3.54c3.01,0,6.12-0.4,9.31-1.15c3.24-0.71,6.35-1.9,9.27-3.45
		c2.97-1.55,5.62-3.58,8.14-6.02c2.48-2.52,4.45-5.57,5.94-9.2l27.53,15.93c-2.21,5.26-5.45,9.96-9.76,14.16
		c-4.32,4.16-9.31,7.66-14.89,10.5c-5.62,2.82-11.61,5.04-17.86,6.5c-6.34,1.46-12.5,2.22-18.49,2.22c-10.57,0-20.29-2.13-29.1-6.38
		c-8.81-4.25-16.37-9.87-22.8-16.91c-6.34-6.99-11.29-14.97-14.76-23.82C703.48,294.18,701.73,285.15,701.73,275.99"/>
	<polygon class="st0" points="970.61,348.97 970.61,263.04 938.99,325.5 920.95,325.5 889.28,263.04 889.28,348.97 855.59,348.97 
		855.59,205.45 892.16,205.45 929.94,280.44 967.95,205.45 1004.3,205.45 1004.3,348.97 	"/>
	<path class="st0" d="M1036.33,348.96V205.43l65.72,0c6.83,0,13.17,1.42,19.02,4.25c5.81,2.83,10.84,6.51,15.07,11.16
		c4.23,4.51,7.6,9.7,9.94,15.54c2.43,5.76,3.6,11.65,3.6,17.62c0,4.38-0.5,8.68-1.62,12.8c-1.12,4.12-2.65,7.97-4.72,11.6
		c-2.03,3.67-4.59,6.95-7.46,9.82c-3.02,2.92-6.29,5.31-9.99,7.39l32.03,53.35l-38.02,0l-27.93-46.31h-21.95v46.31L1036.33,348.96z
		 M1070.02,273.78h30.81c3.96,0,7.42-1.86,10.25-5.58c2.88-3.67,4.31-8.46,4.31-14.21c0-5.97-1.62-10.67-4.95-14.21
		c-3.28-3.5-6.83-5.27-10.66-5.27l-29.77,0V273.78z"/>
	<path class="st0" d="M1178.1,348.97V205.44l54.38,0c12.05,0,22.58,1.91,31.62,5.66c9.04,3.77,16.64,8.9,22.72,15.36
		c6.07,6.47,10.66,14.04,13.72,22.71c3.14,8.68,4.68,17.98,4.68,27.81c0,10.93-1.76,20.8-5.18,29.62
		c-3.42,8.85-8.32,16.38-14.66,22.66c-6.35,6.24-14.04,11.12-22.99,14.57c-9,3.41-18.93,5.13-29.91,5.13L1178.1,348.97z
		 M1270.9,276.99c0-6.33-0.9-12.09-2.61-17.32c-1.66-5.18-4.18-9.6-7.46-13.36c-3.28-3.81-7.33-6.68-12.1-8.72
		c-4.81-2.04-10.21-3.06-16.23-3.06l-20.74,0v85.31l20.74,0c6.16,0,11.65-1.06,16.46-3.19c4.77-2.17,8.78-5.18,11.97-9.04
		c3.28-3.85,5.71-8.32,7.37-13.5C1270,288.94,1270.9,283.23,1270.9,276.99"/>
</g>
</svg>
